<svg width="20" height="20" viewBox="0 0 20 20" fill="none" xmlns="http://www.w3.org/2000/svg">
<path d="M6 10C6 9.46957 5.78929 8.96086 5.41421 8.58579C5.03914 8.21071 4.53043 8 4 8C3.46957 8 2.96086 8.21071 2.58579 8.58579C2.21071 8.96086 2 9.46957 2 10C2 10.5304 2.21071 11.0391 2.58579 11.4142C2.96086 11.7893 3.46957 12 4 12C4.53043 12 5.03914 11.7893 5.41421 11.4142C5.78929 11.0391 6 10.5304 6 10ZM12 10C12 9.46957 11.7893 8.96086 11.4142 8.58579C11.0391 8.21071 10.5304 8 10 8C9.46957 8 8.96086 8.21071 8.58579 8.58579C8.21071 8.96086 8 9.46957 8 10C8 10.5304 8.21071 11.0391 8.58579 11.4142C8.96086 11.7893 9.46957 12 10 12C10.5304 12 11.0391 11.7893 11.4142 11.4142C11.7893 11.0391 12 10.5304 12 10ZM16 8C16.5304 8 17.0391 8.21071 17.4142 8.58579C17.7893 8.96086 18 9.46957 18 10C18 10.5304 17.7893 11.0391 17.4142 11.4142C17.0391 11.7893 16.5304 12 16 12C15.4696 12 14.9609 11.7893 14.5858 11.4142C14.2107 11.0391 14 10.5304 14 10C14 9.46957 14.2107 8.96086 14.5858 8.58579C14.9609 8.21071 15.4696 8 16 8Z" fill="#4B5563"/>
</svg>
